# xmcd
#
# Track frame offsets:
#	150
#	31700
#	55101
#	70240
#	101059
#	126925
#	146809
#	161575
#	193074
#	220701
#	234873
#	259026
#	287430
#	316283
#
# Disc length: 4595 seconds
#
# Revision: 1
# Processed by: cddbd v1.5.1PL0 Copyright (c) Steve Scherf et al.
# Submitted via: audiograbber 1.83.01
#
DISCID=c511f10e
DTITLE=Various Artist - Electro House. (2005)
DYEAR=1900
DGENRE=
TTITLE0=East Town feat. Darryl D'Bonneau. - U Need To Be Gone. (Ampere Version)
TTITLE1=Demon Lovers. - Are You Gonna Go My Way. (Club Mix)
TTITLE2=Snack. - This Is Not Rock'N'Roll. (Radio Mix)
TTITLE3=Golfclub. - Spandex. (Extended Mix)
TTITLE4=Technopimps. - Head Bahger. (Alex Fain Mix)
TTITLE5=Robyn and Jay. - Wanna Be. (Terminator Version)
TTITLE6=4U. - The Rhythm Of Emotion. (Extended Mix)
TTITLE7=Intenso Project feat. Lisa Scott-Lee. - Get It On. (Dj Bomba and Paolo Rm
TTITLE7=x)
TTITLE8=Goodwill. - Happenis. (Poxy Music Pants Down Mix)
TTITLE9=Gabro and libe. - I Can Be This. (Radio Edit)
TTITLE10=Giaga feat. Margot. - Funky Queen. (Giagarobot Dub)
TTITLE11=Dave Armstrong. - Out Of Touch. (Sandy Brown Rmx)
TTITLE12=Florida Inc. - I need Your Lovin' (South Beach Mix)
TTITLE13=Rava. - Hot Tin Groove. (Bat 67 Rmx)
EXTD=
EXTT0=
EXTT1=
EXTT2=
EXTT3=
EXTT4=
EXTT5=
EXTT6=
EXTT7=
EXTT8=
EXTT9=
EXTT10=
EXTT11=
EXTT12=
EXTT13=
PLAYORDER=
